<svg width="30" height="30" viewBox="0 0 30 30" fill="none" xmlns="http://www.w3.org/2000/svg">
<path d="M20.2727 0C17.9015 0 15.9158 1.65061 15.402 3.86551L1.36364 3.86551C0.610529 3.86551 8.85063e-06 4.47603 8.85063e-06 5.22915C8.85063e-06 5.98226 0.610529 6.59278 1.36364 6.59278L15.5318 6.59278C16.1969 8.57327 18.0682 10 20.2727 10C22.4773 10 24.3486 8.57327 25.0137 6.59278H28.6364C29.3895 6.59278 30 5.98226 30 5.22915C30 4.47603 29.3895 3.86551 28.6364 3.86551H25.1435C24.6296 1.65061 22.6439 0 20.2727 0Z" fill="#5F33E1"/>
<path d="M7.54546 10C5.24568 10 3.30854 11.5527 2.72513 13.6669L1.32791 13.7036C0.575057 13.7233 -0.0192564 14.3496 0.00047756 15.1025C0.0202115 15.8553 0.64652 16.4496 1.39938 16.4299L2.74256 16.3947C3.3463 18.4774 5.26807 20 7.54546 20C9.80978 20 11.7225 18.4948 12.3378 16.4305H28.6364C29.3895 16.4305 30 15.8199 30 15.0668C30 14.3137 29.3895 13.7032 28.6364 13.7032H12.3756C11.8045 11.5705 9.85837 10 7.54546 10Z" fill="#5F33E1"/>
<path d="M20.2727 20C18.019 20 16.1135 21.4911 15.4891 23.5407H1.36364C0.61053 23.5407 9.7176e-06 24.1512 9.7176e-06 24.9043C9.7176e-06 25.6574 0.61053 26.2679 1.36364 26.2679H15.4349C15.9962 28.4154 17.9494 30 20.2727 30C22.5961 30 24.5493 28.4154 25.1106 26.2679H28.6364C29.3895 26.2679 30 25.6574 30 24.9043C30 24.1512 29.3895 23.5407 28.6364 23.5407H25.0564C24.432 21.4911 22.5265 20 20.2727 20Z" fill="#5F33E1"/>
</svg>
